<mxfile host="app.diagrams.net" modified="2024-03-07T11:18:31.960Z" agent="Mozilla/5.0 (X11; Linux x86_64) AppleWebKit/537.36 (KHTML, like Gecko) Chrome/122.0.0.0 Safari/537.36" etag="RUf6jmnS-NJOSdIsgfh5" version="21.6.9" type="github">
  <diagram name="Page-1" id="-VwbvClMGyZVKaIXkjAa">
    <mxGraphModel dx="821" dy="466" grid="1" gridSize="10" guides="1" tooltips="1" connect="1" arrows="1" fold="1" page="1" pageScale="1" pageWidth="827" pageHeight="1169" math="0" shadow="0">
      <root>
        <mxCell id="0" />
        <mxCell id="1" parent="0" />
        <mxCell id="frp2rCiCJxWg1SznggJd-2" value="&lt;br&gt;&lt;br&gt;&lt;br&gt;Amazon S3" style="sketch=0;outlineConnect=0;fontColor=#232F3E;gradientColor=none;strokeColor=#ffffff;fillColor=#232F3E;dashed=0;verticalLabelPosition=middle;verticalAlign=bottom;align=center;html=1;whiteSpace=wrap;fontSize=10;fontStyle=1;spacing=3;shape=mxgraph.aws4.productIcon;prIcon=mxgraph.aws4.s3;" vertex="1" parent="1">
          <mxGeometry x="950" y="40" width="70" height="90" as="geometry" />
        </mxCell>
        <mxCell id="frp2rCiCJxWg1SznggJd-3" value="VISION DB" style="shape=cylinder3;whiteSpace=wrap;html=1;boundedLbl=1;backgroundOutline=1;size=15;" vertex="1" parent="1">
          <mxGeometry x="790" y="30" width="60" height="80" as="geometry" />
        </mxCell>
        <mxCell id="frp2rCiCJxWg1SznggJd-6" style="edgeStyle=orthogonalEdgeStyle;rounded=0;orthogonalLoop=1;jettySize=auto;html=1;entryX=0;entryY=0.5;entryDx=0;entryDy=0;entryPerimeter=0;" edge="1" parent="1" source="frp2rCiCJxWg1SznggJd-4" target="frp2rCiCJxWg1SznggJd-5">
          <mxGeometry relative="1" as="geometry" />
        </mxCell>
        <mxCell id="frp2rCiCJxWg1SznggJd-4" value="Sourcing APP" style="sketch=0;outlineConnect=0;gradientColor=none;fontColor=#545B64;strokeColor=none;fillColor=#879196;dashed=0;verticalLabelPosition=bottom;verticalAlign=top;align=center;html=1;fontSize=12;fontStyle=0;aspect=fixed;shape=mxgraph.aws4.illustration_devices;pointerEvents=1" vertex="1" parent="1">
          <mxGeometry x="140" y="115.5" width="100" height="73" as="geometry" />
        </mxCell>
        <mxCell id="frp2rCiCJxWg1SznggJd-7" style="edgeStyle=orthogonalEdgeStyle;rounded=0;orthogonalLoop=1;jettySize=auto;html=1;startArrow=none;startFill=0;exitX=1;exitY=0.5;exitDx=0;exitDy=0;exitPerimeter=0;" edge="1" parent="1" source="frp2rCiCJxWg1SznggJd-5" target="frp2rCiCJxWg1SznggJd-2">
          <mxGeometry relative="1" as="geometry">
            <Array as="points">
              <mxPoint x="530" y="152" />
              <mxPoint x="530" y="220" />
              <mxPoint x="985" y="220" />
            </Array>
          </mxGeometry>
        </mxCell>
        <mxCell id="frp2rCiCJxWg1SznggJd-8" style="edgeStyle=orthogonalEdgeStyle;rounded=0;orthogonalLoop=1;jettySize=auto;html=1;entryX=0;entryY=0.5;entryDx=0;entryDy=0;entryPerimeter=0;" edge="1" parent="1" source="frp2rCiCJxWg1SznggJd-5" target="frp2rCiCJxWg1SznggJd-3">
          <mxGeometry relative="1" as="geometry">
            <Array as="points">
              <mxPoint x="530" y="152" />
              <mxPoint x="530" y="70" />
            </Array>
          </mxGeometry>
        </mxCell>
        <mxCell id="frp2rCiCJxWg1SznggJd-5" value="Sourcing Backend API&lt;br&gt;Node JS" style="outlineConnect=0;dashed=0;verticalLabelPosition=bottom;verticalAlign=top;align=center;html=1;shape=mxgraph.aws3.android;fillColor=#8CC64F;gradientColor=none;" vertex="1" parent="1">
          <mxGeometry x="320" y="110" width="73.5" height="84" as="geometry" />
        </mxCell>
        <mxCell id="frp2rCiCJxWg1SznggJd-10" value="Updating the database with sourced images details" style="rounded=1;whiteSpace=wrap;html=1;dashed=1;perimeterSpacing=0;" vertex="1" parent="1">
          <mxGeometry x="370" y="10" width="130" height="60" as="geometry" />
        </mxCell>
        <mxCell id="frp2rCiCJxWg1SznggJd-11" value="Storing sourced images in Amazon S3 bucket" style="rounded=1;whiteSpace=wrap;html=1;dashed=1;perimeterSpacing=0;" vertex="1" parent="1">
          <mxGeometry x="570" y="90" width="110" height="50" as="geometry" />
        </mxCell>
        <mxCell id="frp2rCiCJxWg1SznggJd-19" style="edgeStyle=orthogonalEdgeStyle;rounded=0;orthogonalLoop=1;jettySize=auto;html=1;entryX=0.5;entryY=1;entryDx=0;entryDy=0;entryPerimeter=0;" edge="1" parent="1" source="frp2rCiCJxWg1SznggJd-15" target="frp2rCiCJxWg1SznggJd-3">
          <mxGeometry relative="1" as="geometry" />
        </mxCell>
        <mxCell id="frp2rCiCJxWg1SznggJd-15" value="" style="rounded=0;whiteSpace=wrap;html=1;gradientColor=none;fillColor=none;dashed=1;" vertex="1" parent="1">
          <mxGeometry x="90" y="320" width="540" height="290" as="geometry" />
        </mxCell>
        <mxCell id="frp2rCiCJxWg1SznggJd-12" value="Data Cleaning" style="outlineConnect=0;dashed=0;verticalLabelPosition=bottom;verticalAlign=top;align=center;html=1;shape=mxgraph.aws3.android;fillColor=#5A69A4;gradientColor=none;" vertex="1" parent="1">
          <mxGeometry x="70" y="293.71" width="40.5" height="46.29" as="geometry" />
        </mxCell>
        <mxCell id="frp2rCiCJxWg1SznggJd-18" value="" style="edgeStyle=orthogonalEdgeStyle;rounded=0;orthogonalLoop=1;jettySize=auto;html=1;" edge="1" parent="1" source="frp2rCiCJxWg1SznggJd-16" target="frp2rCiCJxWg1SznggJd-17">
          <mxGeometry relative="1" as="geometry" />
        </mxCell>
        <mxCell id="frp2rCiCJxWg1SznggJd-16" value="Fetch all pending sourced dates and assign to the sorter for work" style="rounded=0;whiteSpace=wrap;html=1;" vertex="1" parent="1">
          <mxGeometry x="160" y="350" width="130" height="70" as="geometry" />
        </mxCell>
        <mxCell id="frp2rCiCJxWg1SznggJd-22" style="edgeStyle=orthogonalEdgeStyle;rounded=0;orthogonalLoop=1;jettySize=auto;html=1;" edge="1" parent="1" source="frp2rCiCJxWg1SznggJd-17" target="frp2rCiCJxWg1SznggJd-21">
          <mxGeometry relative="1" as="geometry">
            <Array as="points">
              <mxPoint x="335" y="480" />
              <mxPoint x="335" y="535" />
            </Array>
          </mxGeometry>
        </mxCell>
        <mxCell id="frp2rCiCJxWg1SznggJd-17" value="Sorter can&amp;nbsp;&lt;br&gt;&lt;ol&gt;&lt;li style=&quot;text-align: left;&quot;&gt;Rename the folder&lt;/li&gt;&lt;li style=&quot;text-align: left;&quot;&gt;Verify the all the images under the sku_id or category which sourced&lt;/li&gt;&lt;li style=&quot;text-align: left;&quot;&gt;Can move images to another folder&lt;/li&gt;&lt;li style=&quot;text-align: left;&quot;&gt;Can move selected images to invalid folder&lt;/li&gt;&lt;/ol&gt;" style="rounded=0;whiteSpace=wrap;html=1;align=center;" vertex="1" parent="1">
          <mxGeometry x="380" y="360" width="210" height="170" as="geometry" />
        </mxCell>
        <mxCell id="frp2rCiCJxWg1SznggJd-20" value="Updating images path in captured_images table&amp;nbsp;" style="rounded=1;whiteSpace=wrap;html=1;dashed=1;perimeterSpacing=0;" vertex="1" parent="1">
          <mxGeometry x="670" y="340" width="130" height="70" as="geometry" />
        </mxCell>
        <mxCell id="frp2rCiCJxWg1SznggJd-21" value="Fetch all pending sourced dates and assign to the sorter for work" style="rounded=0;whiteSpace=wrap;html=1;" vertex="1" parent="1">
          <mxGeometry x="160" y="500" width="130" height="70" as="geometry" />
        </mxCell>
      </root>
    </mxGraphModel>
  </diagram>
</mxfile>
